<svg xmlns="http://www.w3.org/2000/svg" viewBox="0 0 600 1200" role="img" aria-label="Grundmontage">
  <rect width="600" height="1200" fill="#FAF8F2"/>
  <g fill="none" stroke="#173F4F" stroke-width="7" stroke-linecap="round" stroke-linejoin="round"><path d="M300 60v350M300 505v390"/></g>
  <g fill="#202B30" stroke="#202B30" stroke-width="5"><ellipse cx="300" cy="455" rx="42" ry="55"/><path d="M278 425l44 60" stroke="#FAF8F2"/></g>
  <g fill="none" stroke="#202B30" stroke-width="8" stroke-linecap="round" stroke-linejoin="round"><path d="M300 895v90c0 70 105 68 105-10 0-47-39-62-72-38"/><path d="M333 937l22 3-8 21"/></g>
  <g fill="#D8C7A5" stroke="#202B30" stroke-width="5"><path d="M278 933c-24 17-34 47-17 64 18 18 46-2 62 15 13 13 5 33-8 45 29-11 46-38 30-59-19-25-48-4-62-24-9-12-3-28 8-40Z"/></g>
  <path d="M110 1080h380" stroke="#64805A" stroke-width="12" stroke-linecap="round"/>
</svg>
